<svg width="17" height="21" viewBox="0 0 17 21" fill="none" xmlns="http://www.w3.org/2000/svg">
<path d="M5.71875 11.6719L8.01562 9.9375L10.3125 11.6719L9.46875 8.8125L11.7656 6.98438H8.90625L8.01562 4.17188L7.125 6.98438H4.26562L6.5625 8.8125L5.71875 11.6719ZM16.0312 7.96875C16.0312 6.875 15.8203 5.84375 15.3984 4.875C14.9766 3.90625 14.3984 3.05469 13.6641 2.32031C12.9297 1.58594 12.0781 1.01562 11.1094 0.609375C10.1406 0.203125 9.10938 0 8.01562 0C6.92188 0 5.89062 0.203125 4.92188 0.609375C3.95312 1.01562 3.10156 1.58594 2.36719 2.32031C1.63281 3.05469 1.05469 3.90625 0.632812 4.875C0.210938 5.84375 0 6.875 0 7.96875C0 9 0.179688 9.96094 0.539062 10.8516C0.898438 11.7422 1.39062 12.5469 2.01562 13.2656V21L8.01562 18.9844L14.0156 21V13.2656C14.6406 12.5469 15.1328 11.7422 15.4922 10.8516C15.8516 9.96094 16.0312 9 16.0312 7.96875ZM8.01562 1.96875C9.10938 1.96875 10.1094 2.24219 11.0156 2.78906C11.9219 3.33594 12.6484 4.0625 13.1953 4.96875C13.7422 5.875 14.0156 6.875 14.0156 7.96875C14.0156 9.09375 13.7422 10.1094 13.1953 11.0156C12.6484 11.9219 11.9219 12.6406 11.0156 13.1719C10.1094 13.7031 9.10938 13.9688 8.01562 13.9688C6.92188 13.9688 5.92188 13.7031 5.01562 13.1719C4.10938 12.6406 3.38281 11.9219 2.83594 11.0156C2.28906 10.1094 2.01562 9.09375 2.01562 7.96875C2.01562 6.875 2.28906 5.875 2.83594 4.96875C3.38281 4.0625 4.10938 3.33594 5.01562 2.78906C5.92188 2.24219 6.92188 1.96875 8.01562 1.96875Z" fill="#EA580C"/>
</svg>
