<svg width="24" height="22" viewBox="0 0 24 22" fill="none" xmlns="http://www.w3.org/2000/svg">
<path d="M18.9 0L13.6828 5.26641V16.8328L18.9 12.1078V0ZM0 5.26641V20.6719C0 20.8031 0.0574219 20.918 0.172266 21.0164C0.287109 21.1148 0.410156 21.1641 0.541406 21.1641C0.607031 21.1641 0.65625 21.1559 0.689062 21.1395C0.721875 21.123 0.754687 21.1148 0.7875 21.1148C1.50937 20.7867 2.32969 20.516 3.24844 20.3027C4.16719 20.0895 5.02031 19.9828 5.80781 19.9828C6.825 19.9828 7.85039 20.0977 8.88398 20.3273C9.91758 20.557 10.8117 20.9672 11.5664 21.5578V5.26641C10.8117 4.67578 9.91758 4.26562 8.88398 4.03594C7.85039 3.80625 6.825 3.69141 5.80781 3.69141C4.75781 3.69141 3.72422 3.80625 2.70703 4.03594C1.68984 4.26562 0.7875 4.67578 0 5.26641ZM23.1328 19.4414V5.26641C22.8047 5.03672 22.4684 4.83984 22.1238 4.67578C21.7793 4.51172 21.4102 4.36406 21.0164 4.23281V18.4078C20.4258 18.2109 19.827 18.0715 19.2199 17.9895C18.6129 17.9074 17.9812 17.8664 17.325 17.8664C16.7344 17.8664 16.0863 17.932 15.3809 18.0633C14.6754 18.1945 13.9781 18.3832 13.2891 18.6293C12.6 18.8754 12.0258 19.1461 11.5664 19.4414V21.5578C12.0258 21.2625 12.6 20.9918 13.2891 20.7457C13.9781 20.4996 14.6754 20.3109 15.3809 20.1797C16.0863 20.0484 16.7344 19.9828 17.325 19.9828C18.2109 19.9828 19.0805 20.0648 19.9336 20.2289C20.7867 20.393 21.5906 20.6719 22.3453 21.0656C22.4109 21.0984 22.493 21.1148 22.5914 21.1148C22.7227 21.1148 22.8457 21.0574 22.9605 20.9426C23.0754 20.8277 23.1328 20.7047 23.1328 20.5734V19.4414Z" fill="#F59E0B"/>
</svg>
