<svg width="12" height="10" viewBox="0 0 12 10" fill="none" xmlns="http://www.w3.org/2000/svg">
<path d="M1.16667 0L2.33333 2.33333H4.08333L2.91667 0H4.08333L5.25 2.33333H7L5.83333 0H7L8.16667 2.33333H9.91667L8.75 0H10.5C10.8208 0 11.0955 0.114236 11.324 0.342708C11.5524 0.571181 11.6667 0.845833 11.6667 1.16667V8.16667C11.6667 8.4875 11.5524 8.76215 11.324 8.99063C11.0955 9.2191 10.8208 9.33333 10.5 9.33333H1.16667C0.845833 9.33333 0.571181 9.2191 0.342708 8.99063C0.114236 8.76215 0 8.4875 0 8.16667V1.16667C0 0.845833 0.114236 0.571181 0.342708 0.342708C0.571181 0.114236 0.845833 0 1.16667 0ZM1.16667 3.5V8.16667H10.5V3.5H1.16667ZM1.16667 3.5V8.16667V3.5Z" fill="#F97316"/>
</svg>
